# xmcd
#
# Track frame offsets: 
#        187
#        16852
#        30065
#        44762
#        61290
#        76940
#        95320
#        107915
#        123932
#        139920
#        153612
#        171977
#        185315
#        204652
#        218160
#        232410
#        249832
#        261765
#
# Disc length: 3679 seconds
#
# Revision: 2
# Processed by: cddbd v1.5.2PL0 Copyright (c) Steve Scherf et al.
# Submitted via: ExactAudioCopy v1.3
#
DISCID=f50e5d12
DTITLE=Various Artist - This Is Your Country
DYEAR=1991
DGENRE=Country
TTITLE0=Garth Brooks - If Tomorrow Never Comes
TTITLE1=Doug Stone - Fourteen Minutes Old
TTITLE2=Tanya Tucker with T. Graham Brown - Don't Go Out
TTITLE3=Shenandoah - Next To You Next To Me
TTITLE4=Lorrie Morgan - He Talks To Me
TTITLE5=Shelby Lynne - I'll Lie Myself To Sleep
TTITLE6=Rodney Crowell - My Past Is Present
TTITLE7=Kathy Mattea - She Came From Fort Worth
TTITLE8=Eddie Rabbitt - It's Lonely Out Tonite
TTITLE9=Ricky Van Shelton - I Meant Every Word He Said
TTITLE10=Highway 101 - This Side Of Goodbye
TTITLE11=Mary-Chapin Carpenter - Something Of A Dreamer
TTITLE12=Restless Heart - Dancy's Dream
TTITLE13=Waylon Jennings - Wrong
TTITLE14=Patty Loveless - On Down The Line
TTITLE15=Dan Seals - Love On Arrival
TTITLE16=Marty Stuart - Hillbilly Rock
TTITLE17=Kentucky Headhunters - Oh Lonesome Me
EXTD=
EXTT0=
EXTT1=
EXTT2=
EXTT3=
EXTT4=
EXTT5=
EXTT6=
EXTT7=
EXTT8=
EXTT9=
EXTT10=
EXTT11=
EXTT12=
EXTT13=
EXTT14=
EXTT15=
EXTT16=
EXTT17=
PLAYORDER=
